<svg width="82" height="19" viewBox="0 0 82 19" fill="none" xmlns="http://www.w3.org/2000/svg">
<g clip-path="url(#clip0_1_334)">
<path d="M2.29883 5.9165L5.97733 16.5658H10.5755L13.1136 8.98805L15.7805 16.5658H20.2131L24.0388 5.89811H20.5258L17.8221 14.3035L15.0265 5.89811H11.4215L8.58907 14.3035L5.88537 5.89811C5.92216 6.02686 5.92216 6.06364 5.79341 6.06364C5.53591 6.06364 4.78182 5.9165 2.70346 5.9165H2.29883ZM24.0626 11.4159C24.0626 14.9288 27.5204 16.8601 31.0334 16.8601C34.5096 16.8601 37.9122 14.9656 37.9122 11.4159C37.9122 7.82932 34.6015 5.93489 31.1438 5.93489C27.6124 5.93489 24.0626 7.93968 24.0626 11.4159ZM30.9966 7.8845C33.2037 7.8845 34.3808 9.42947 34.3808 11.4159C34.3808 13.439 33.0014 15.0576 30.9966 15.0576C28.9918 15.0576 27.594 13.439 27.594 11.4159C27.594 9.63179 28.7711 7.8845 30.9966 7.8845ZM43.0949 2.238H39.7107V16.5658H43.0949V2.238ZM44.8979 11.563C44.8979 14.3403 47.7487 16.7313 51.5744 16.7313C53.616 16.7313 55.6943 16.0692 56.945 14.3771V16.5658H60.3476V2.2196H56.945V8.91448C55.8966 7.70058 53.3952 6.54185 51.3537 6.54185C47.7487 6.54185 44.8979 8.39949 44.8979 11.563ZM48.3189 11.563C48.3189 9.57661 49.7903 8.3811 52.2733 8.3811C55.0874 8.3811 56.945 10.202 56.945 11.7285C56.945 12.9241 55.1609 14.8369 52.6779 14.8369C50.2869 14.8369 48.3189 13.8069 48.3189 11.563ZM66.2797 16.5658V7.36951H62.8771V16.5658H66.2797ZM66.2797 5.82454V2.25639H62.8771V5.82454H66.2797ZM75.1895 16.8049C77.9852 16.8049 80.3392 15.7565 81.2589 14.1196L78.6103 13.6781C77.7645 14.5978 76.477 15.076 75.1528 15.076C73.2399 15.076 71.9157 13.8989 71.8605 12.4826C73.0376 12.4826 80.9094 12.4458 81.9394 12.4458C82.0129 12.17 82.0497 11.8573 82.0497 11.563C82.0313 7.92129 78.7759 6.21078 75.2815 6.21078C71.4743 6.21078 68.2188 8.28914 68.2188 11.5262C68.2188 14.7449 71.3823 16.8049 75.1895 16.8049ZM75.1528 8.05003C77.1024 8.05003 78.4632 9.31912 78.4632 11.14L71.8053 11.1584C71.7869 9.63179 73.0008 8.05003 75.1528 8.05003Z" fill="white" fill-opacity="0.8"/>
</g>
<g clip-path="url(#clip1_1_334)">
<path d="M0 5.9165L3.6785 16.5658H8.27664L10.8148 8.98805L13.4817 16.5658H17.9143L21.74 5.89811H18.227L15.5233 14.3035L12.7276 5.89811H9.12269L6.29024 14.3035L3.58654 5.89811C3.62333 6.02686 3.62333 6.06364 3.49458 6.06364C3.23708 6.06364 2.48299 5.9165 0.404636 5.9165H0ZM21.7638 11.4159C21.7638 14.9288 25.2216 16.8601 28.7346 16.8601C32.2107 16.8601 35.6134 14.9656 35.6134 11.4159C35.6134 7.82932 32.3027 5.93489 28.8449 5.93489C25.3136 5.93489 21.7638 7.93968 21.7638 11.4159ZM28.6978 7.8845C30.9049 7.8845 32.082 9.42947 32.082 11.4159C32.082 13.439 30.7026 15.0576 28.6978 15.0576C26.693 15.0576 25.2952 13.439 25.2952 11.4159C25.2952 9.63179 26.4723 7.8845 28.6978 7.8845ZM40.7961 2.238H37.4118V16.5658H40.7961V2.238ZM42.5991 11.563C42.5991 14.3403 45.4499 16.7313 49.2756 16.7313C51.3171 16.7313 53.3955 16.0692 54.6462 14.3771V16.5658H58.0488V2.2196H54.6462V8.91448C53.5978 7.70058 51.0964 6.54185 49.0548 6.54185C45.4499 6.54185 42.5991 8.39949 42.5991 11.563ZM46.0201 11.563C46.0201 9.57661 47.4915 8.3811 49.9745 8.3811C52.7885 8.3811 54.6462 10.202 54.6462 11.7285C54.6462 12.9241 52.8621 14.8369 50.3791 14.8369C47.9881 14.8369 46.0201 13.8069 46.0201 11.563ZM63.9808 16.5658V7.36951H60.5782V16.5658H63.9808ZM63.9808 5.82454V2.25639H60.5782V5.82454H63.9808ZM72.8907 16.8049C75.6864 16.8049 78.0402 15.7565 78.9599 14.1196L76.3115 13.6781C75.4657 14.5978 74.1782 15.076 72.8539 15.076C70.9411 15.076 69.6168 13.8989 69.5617 12.4826C70.7388 12.4826 78.6104 12.4458 79.6404 12.4458C79.714 12.17 79.7507 11.8573 79.7507 11.563C79.7324 7.92129 76.477 6.21078 72.9827 6.21078C69.1754 6.21078 65.92 8.28914 65.92 11.5262C65.92 14.7449 69.0835 16.8049 72.8907 16.8049ZM72.8539 8.05003C74.8035 8.05003 76.1644 9.31912 76.1644 11.14L69.5065 11.1584C69.4881 9.63179 70.702 8.05003 72.8539 8.05003Z" fill="white" fill-opacity="0.8"/>
</g>
<path d="M28.8359 5.93866H31.5272L31.4321 7.8991H29.1148L28.8359 5.93866Z" fill="white" fill-opacity="0.8"/>
<path d="M29.1074 15.0387H31.5581L31.4531 16.8455H29.1074V15.0387Z" fill="white" fill-opacity="0.8"/>
<defs>
<clipPath id="clip0_1_334">
<rect width="50.5794" height="17.6262" fill="white" transform="translate(31.4199 0.68689)"/>
</clipPath>
<clipPath id="clip1_1_334">
<rect width="29.1215" height="17.6262" fill="white" transform="translate(0 0.68689)"/>
</clipPath>
</defs>
</svg>
